<svg xmlns="http://www.w3.org/2000/svg" viewBox="0 0 310.09 342.68" height="20" width="20">
	<defs>
		<style>

			.part-2,
			.part-3 {
				fill: none !important;
				stroke: #a7aaad;
				stroke-linecap: round;
				stroke-miterlimit: 10;
			}
			.part-2 {
				stroke-width: 5px;
			}
			.part-3 {
				stroke-width: 3px;
			}
</style>
	</defs>
	<g>
		<g>
			<path fill="#a7aaad" d="M136.8,24.33v149.1h-.18L36.25,283.53A149.1,149.1,0,1,0,136.8,24.33Z" />
		</g>
		<g>
			<line class="part-2" x1="114.71" y1="45.77" x2="90.87" y2="45.77" />
			<line class="part-2" x1="114.71" y1="65.1" x2="59.56" y2="65.1" />
			<line class="part-2" x1="114.71" y1="90.51" x2="34.31" y2="90.51" />
			<line class="part-2" x1="114.71" y1="115.99" x2="16.67" y2="115.99" />
			<line class="part-2" x1="114.71" y1="143.3" x2="7.23" y2="143.3" />
			<line class="part-2" x1="114.71" y1="171.34" x2="2.5" y2="171.34" />
			<line class="part-2" x1="79.11" y1="196.1" x2="5.56" y2="196.1" />
			<line class="part-2" x1="62.38" y1="223.16" x2="11.95" y2="223.16" />
			<line class="part-2" x1="46.16" y1="250.21" x2="23.69" y2="250.21" />
		</g>
		<g>
			<line class="part-3" x1="203.67" y1="57.61" x2="196.29" y2="70.39" />
			<line class="part-3" x1="270.53" y1="173.43" x2="255.78" y2="173.43" />
			<line class="part-3" x1="203.67" y1="289.25" x2="196.29" y2="276.47" />
		</g>
		<g>
			<path class="part-3" d="M26.07,301.71c29.36,24.23,71.64,39.47,112.68,39.47a169.84,169.84,0,0,0,0-339.68" />
		</g>
	</g>
</svg>